<?xml version="1.0" standalone="no"?>
<!DOCTYPE svg PUBLIC "-//W3C//DTD SVG 20010904//EN"
 "http://www.w3.org/TR/2001/REC-SVG-20010904/DTD/svg10.dtd">
<svg version="1.0" xmlns="http://www.w3.org/2000/svg"
 width="500.000000pt" height="477.000000pt" viewBox="0 0 500.000000 477.000000"
 preserveAspectRatio="xMidYMid meet">

<g transform="translate(0.000000,477.000000) scale(0.100000,-0.100000)"
fill="#000000" stroke="none">
<path d="M2405 4673 c-326 -16 -759 -113 -907 -203 -37 -22 -72 -40 -79 -40
-27 0 -256 -129 -305 -172 -65 -56 -138 -108 -154 -108 -18 0 -289 -277 -365
-374 -38 -49 -81 -101 -94 -115 -31 -35 -92 -125 -125 -186 -15 -27 -40 -73
-56 -101 l-29 -52 20 -53 c11 -30 29 -71 40 -93 l20 -39 -37 -76 c-20 -42 -43
-83 -50 -91 -6 -8 -24 -44 -39 -80 -15 -36 -33 -78 -40 -95 -45 -105 -77 -212
-112 -373 -26 -119 -28 -143 -28 -369 0 -133 3 -245 7 -248 9 -9 75 21 103 45
11 10 59 37 107 61 73 34 90 40 103 29 8 -7 15 -22 15 -34 0 -12 9 -53 21 -91
11 -39 31 -107 43 -153 13 -46 31 -88 40 -95 8 -7 24 -40 35 -74 11 -33 31
-87 45 -117 14 -31 26 -60 26 -64 0 -4 9 -18 20 -32 11 -14 20 -32 20 -41 0
-8 17 -42 37 -75 20 -32 46 -77 57 -99 31 -59 75 -125 113 -169 18 -22 33 -44
33 -50 0 -12 22 -34 132 -138 38 -35 68 -67 69 -73 0 -5 39 -41 85 -80 47 -38
105 -88 129 -110 24 -22 59 -47 77 -56 228 -112 274 -136 287 -151 29 -31 233
-91 451 -134 112 -22 458 -30 612 -15 195 19 553 111 588 151 8 9 31 23 50 30
69 26 264 136 295 166 18 18 41 35 53 38 38 12 156 117 270 239 61 66 112 126
112 131 0 12 57 76 68 76 21 0 147 223 215 380 8 19 24 56 36 82 12 26 21 54
21 62 0 8 11 45 24 83 30 81 58 208 81 358 9 61 20 113 24 117 9 10 111 -28
245 -91 63 -30 113 -48 118 -43 16 16 22 291 9 398 -17 142 -31 221 -52 284
-10 30 -23 79 -29 107 -7 29 -22 75 -35 102 -13 27 -27 62 -30 78 -6 24 -55
133 -113 250 -15 31 -15 32 28 98 l44 67 -17 44 c-9 24 -32 68 -51 97 -19 28
-38 64 -41 80 -4 15 -13 27 -19 27 -11 0 -116 141 -116 157 0 5 -32 44 -70 88
-38 44 -81 96 -94 116 -28 42 -137 143 -184 171 -18 11 -37 28 -42 37 -5 10
-53 49 -107 87 -53 38 -118 87 -143 108 -40 35 -113 74 -295 156 -27 12 -62
31 -78 42 -144 102 -789 227 -1092 211z m325 -48 c166 -15 241 -28 415 -70
143 -35 177 -46 260 -88 39 -20 122 -59 185 -87 170 -77 180 -82 223 -117 21
-18 77 -59 124 -90 47 -32 115 -86 150 -120 36 -35 70 -63 78 -63 20 0 305
-315 305 -338 0 -4 20 -34 45 -67 25 -33 57 -84 72 -113 15 -29 34 -57 43 -62
21 -11 80 -121 80 -150 0 -22 -54 -109 -77 -123 -17 -10 -17 -27 0 -41 22 -18
137 -275 177 -396 58 -172 81 -278 101 -459 12 -113 8 -306 -7 -321 -10 -10
-118 31 -212 79 -23 12 -50 21 -60 21 -11 0 -31 11 -46 25 -42 39 -56 33 -56
-22 0 -40 -19 -162 -55 -353 -4 -19 -17 -64 -30 -100 -13 -36 -29 -85 -35
-110 -10 -40 -53 -143 -80 -192 -6 -10 -10 -22 -10 -26 0 -5 -19 -42 -41 -83
-23 -41 -53 -95 -67 -122 -13 -26 -31 -47 -38 -47 -7 0 -19 -10 -25 -22 -6
-12 -31 -46 -55 -75 -24 -30 -44 -57 -44 -62 0 -5 -43 -51 -95 -104 -52 -53
-95 -100 -96 -104 0 -7 -101 -86 -137 -108 -58 -33 -99 -63 -117 -82 -24 -27
-307 -171 -352 -179 -18 -3 -33 -10 -33 -15 0 -14 -39 -27 -205 -69 -189 -48
-314 -63 -530 -63 -203 0 -311 12 -506 58 -178 43 -208 52 -235 76 -11 11 -24
19 -29 19 -10 0 -243 117 -270 136 -11 8 -27 14 -36 14 -8 0 -27 12 -41 27
-14 16 -71 64 -127 107 -55 43 -101 82 -101 85 0 10 -177 191 -186 191 -5 1
-26 27 -46 58 -21 31 -56 82 -78 112 -22 30 -40 59 -40 63 0 4 -15 32 -34 62
-19 29 -62 110 -95 180 -59 120 -85 187 -138 339 -13 38 -28 75 -34 82 -16 19
-53 149 -64 227 -4 26 -11 50 -15 52 -5 3 -70 -24 -146 -60 -75 -36 -142 -65
-149 -65 -18 0 -25 49 -25 184 0 191 12 276 66 491 9 33 19 74 23 90 17 65
101 254 186 415 l45 85 -28 55 c-15 30 -34 73 -41 96 -13 40 -12 42 25 105 22
35 48 81 59 102 11 21 44 64 72 95 29 31 56 66 59 77 4 11 23 39 43 61 20 23
54 65 76 93 22 29 76 86 119 129 44 42 98 95 121 117 23 22 81 67 130 100 49
33 105 74 124 91 43 38 180 115 253 142 73 28 127 53 169 80 75 46 362 117
569 141 52 6 109 13 125 15 78 9 305 4 445 -9z"/>
<path d="M2205 4530 c-96 -11 -200 -34 -275 -59 -30 -11 -100 -34 -155 -51
-125 -41 -262 -98 -338 -142 -140 -81 -254 -157 -306 -203 -94 -84 -169 -145
-179 -145 -10 0 -225 -235 -252 -275 -8 -12 -35 -49 -60 -80 -25 -32 -63 -86
-85 -121 -22 -34 -52 -72 -68 -84 -15 -12 -27 -31 -27 -44 0 -13 28 -57 65
-104 36 -44 65 -87 65 -96 0 -24 -59 -117 -99 -156 -34 -33 -181 -305 -181
-335 0 -7 -13 -43 -28 -81 -16 -38 -32 -85 -35 -104 -3 -19 -13 -64 -21 -100
-18 -82 -41 -288 -34 -296 3 -3 54 24 112 60 59 36 111 66 117 66 6 0 25 -11
43 -25 18 -14 37 -25 42 -25 4 0 25 -16 45 -36 42 -41 59 -38 59 10 0 70 50
387 79 501 35 137 90 304 122 367 11 24 27 61 35 83 16 43 90 173 109 190 6 6
28 36 49 67 21 32 56 78 77 102 22 24 39 48 39 54 0 13 267 272 281 272 7 0
38 17 68 37 31 20 85 56 121 80 118 78 346 152 629 204 117 21 318 25 416 9
33 -6 99 -17 146 -25 204 -34 491 -128 584 -192 33 -22 76 -49 95 -58 61 -31
180 -115 193 -136 6 -11 30 -30 51 -41 70 -36 255 -241 334 -369 25 -41 60
-98 79 -128 18 -30 33 -60 33 -67 0 -7 6 -17 14 -21 21 -13 60 -97 105 -233
57 -167 96 -378 107 -577 4 -62 11 -113 16 -113 4 0 47 24 95 54 l87 54 65
-35 c36 -19 85 -49 109 -65 63 -43 70 -36 60 63 -5 46 -18 118 -29 159 -11 41
-24 93 -29 115 -16 73 -108 295 -122 295 -4 0 -30 44 -56 98 -27 53 -63 119
-80 146 -18 28 -32 54 -32 59 0 4 -13 28 -30 52 -16 24 -30 48 -30 53 0 5 20
23 45 41 25 18 57 48 71 67 l27 35 -31 42 c-18 23 -53 73 -79 111 -25 38 -72
99 -103 135 -31 36 -63 75 -71 87 -8 12 -52 54 -99 94 -47 40 -91 82 -99 94
-7 11 -56 55 -109 96 -52 41 -116 93 -142 116 -26 22 -85 60 -132 84 -46 23
-109 60 -139 81 -61 43 -169 97 -244 122 -27 9 -126 42 -220 73 -231 76 -332
94 -585 99 -113 2 -241 0 -285 -5z m644 -120 c41 -12 81 -47 81 -72 0 -27 -65
-25 -80 2 -7 13 -21 20 -40 20 -38 0 -40 -25 -2 -35 86 -20 138 -95 107 -154
-20 -40 -43 -51 -105 -51 -70 0 -117 22 -134 62 -8 17 -12 38 -9 45 8 21 64 5
88 -24 15 -18 28 -24 50 -21 43 4 38 29 -10 51 -93 44 -130 111 -82 154 37 34
75 41 136 23z m-654 -25 c30 -29 32 -60 6 -99 l-20 -30 40 -47 c43 -51 47 -64
23 -73 -42 -16 -70 -6 -107 39 -50 59 -61 58 -53 -5 6 -48 6 -51 -20 -61 -48
-17 -57 -9 -70 61 -6 36 -17 96 -24 133 -7 37 -10 70 -7 73 6 6 143 32 180 33
17 1 37 -8 52 -24z m1280 -191 c26 -17 33 -48 15 -59 -14 -9 -70 -127 -70
-147 0 -22 25 -40 52 -36 16 2 33 24 66 86 24 45 50 82 58 82 20 0 64 -30 64
-44 0 -6 -22 -47 -48 -91 -37 -60 -59 -86 -90 -103 l-42 -23 -51 27 c-60 33
-99 76 -99 109 0 45 88 215 111 215 6 0 21 -7 34 -16z m-1977 -57 c17 -23 42
-70 56 -104 31 -73 26 -96 -31 -155 -73 -75 -142 -75 -195 0 -45 63 -88 138
-88 153 0 16 40 59 55 59 6 0 19 -17 29 -37 10 -21 32 -60 49 -86 28 -44 34
-48 65 -45 57 5 62 28 23 100 -19 35 -43 69 -53 76 -23 17 -23 51 0 58 9 3 24
9 32 14 24 14 28 12 58 -33z m2599 -429 c42 -41 42 -69 -2 -121 -51 -59 -42
-76 21 -38 17 10 45 22 63 26 29 6 36 3 62 -26 15 -19 28 -41 29 -49 0 -18
-80 -100 -97 -100 -6 0 -34 -19 -63 -42 -41 -33 -56 -39 -69 -31 -32 20 -24
47 29 88 27 22 50 45 50 52 0 18 -13 16 -38 -5 -12 -10 -39 -27 -62 -37 -39
-17 -41 -17 -60 0 -28 25 -26 38 22 105 23 33 39 62 36 65 -3 3 -29 -16 -58
-42 -54 -49 -69 -50 -94 -9 -9 15 -5 22 24 44 19 15 63 55 97 90 35 34 67 62
70 62 4 0 22 -14 40 -32z m-3198 -62 c16 -19 -23 -66 -54 -66 -26 0 -50 -24
-40 -40 10 -16 20 -13 68 20 89 59 173 28 171 -64 -2 -78 -99 -159 -170 -142
-58 15 -32 70 38 79 46 6 74 28 65 51 -10 26 -62 19 -99 -13 -62 -54 -110 -48
-138 18 -16 41 -2 76 53 130 43 43 84 53 106 27z"/>
<path d="M2083 4342 c-26 -4 -32 -39 -9 -48 19 -7 56 13 56 30 0 17 -17 23
-47 18z"/>
<path d="M2240 3985 c-142 -22 -396 -92 -426 -116 -6 -5 -49 -28 -95 -50 -113
-55 -238 -131 -268 -163 -14 -14 -29 -26 -34 -26 -37 0 -300 -268 -357 -363
-39 -66 -89 -135 -103 -144 -21 -13 -116 -208 -158 -326 -79 -221 -114 -424
-113 -672 0 -348 66 -612 235 -936 10 -19 34 -52 54 -73 20 -21 42 -52 49 -70
7 -17 41 -62 75 -101 33 -38 71 -86 84 -105 59 -87 317 -280 487 -365 19 -10
43 -25 52 -35 30 -31 354 -125 518 -150 178 -27 488 -11 690 36 103 23 333
102 345 118 6 7 28 22 51 33 73 35 207 118 233 144 41 40 140 119 150 119 18
0 271 290 271 312 0 5 15 31 33 57 33 45 43 63 107 191 18 36 39 70 46 76 13
11 63 144 90 239 85 309 94 646 24 960 -17 76 -38 155 -47 175 -8 19 -23 63
-34 98 -11 34 -24 62 -29 62 -6 0 -37 54 -69 120 -33 67 -70 134 -83 149 -13
16 -38 54 -57 84 -19 30 -43 66 -55 79 -134 149 -190 208 -198 208 -10 0 -73
49 -149 115 -49 43 -207 134 -294 169 -29 13 -60 27 -67 33 -40 34 -269 96
-432 118 -134 18 -409 18 -526 0z m532 -41 c156 -21 246 -46 363 -99 55 -25
106 -45 114 -45 8 0 59 -24 115 -54 90 -49 141 -84 269 -187 20 -17 49 -36 62
-43 31 -16 211 -210 232 -250 8 -15 38 -60 66 -100 28 -39 56 -84 62 -101 6
-16 30 -68 53 -114 23 -46 42 -92 42 -102 0 -10 6 -22 14 -26 47 -27 136 -487
124 -643 l-3 -45 -100 -12 c-55 -6 -130 -12 -167 -12 -80 -1 -98 12 -98 72 -1
162 -74 453 -151 595 -21 41 -39 80 -39 87 0 8 -9 20 -19 27 -20 15 -91 107
-129 170 -13 20 -78 88 -147 151 -113 105 -135 120 -252 178 -70 35 -139 71
-152 81 -28 21 -130 54 -209 67 -31 6 -84 15 -117 21 -33 6 -130 11 -215 11
-130 0 -175 -4 -280 -26 -121 -26 -209 -55 -240 -81 -8 -6 -49 -26 -90 -43
-119 -50 -186 -96 -326 -228 -161 -151 -234 -246 -312 -406 -93 -189 -140
-357 -158 -567 -4 -41 -12 -78 -18 -82 -16 -11 -318 -9 -335 1 -34 22 19 404
79 576 10 28 25 73 35 100 24 70 97 213 118 232 9 9 17 20 17 25 0 4 35 62 79
128 116 178 287 364 366 400 22 10 51 30 65 45 45 49 322 195 370 195 6 0 32
11 58 24 53 27 181 60 292 75 41 6 86 13 100 15 72 10 361 4 462 -10z m-257
-479 c0 -33 4 -67 8 -76 6 -13 -2 -23 -37 -43 -24 -14 -59 -43 -78 -64 -18
-22 -45 -47 -60 -57 -38 -24 -35 -35 7 -35 88 0 113 -106 56 -231 -16 -35 -43
-79 -60 -97 -60 -65 -106 -27 -146 122 -10 36 -26 68 -43 83 -24 23 -33 24
-82 19 -30 -4 -73 -16 -95 -28 -22 -11 -84 -43 -138 -70 -78 -39 -115 -66
-176 -126 -43 -43 -110 -104 -149 -136 -39 -32 -74 -67 -77 -77 -3 -10 -14
-21 -24 -24 -21 -6 -145 -137 -214 -224 -26 -34 -52 -61 -57 -61 -22 0 -8 72
46 240 34 109 60 168 100 232 13 21 24 43 24 49 0 18 84 128 98 129 7 0 28 24
47 54 19 30 62 78 96 108 34 29 90 78 124 108 69 61 120 89 270 151 55 22 123
51 150 64 43 21 85 31 195 49 14 2 68 3 120 2 l95 -1 0 -60z m-278 -1070 c10
-14 12 -31 8 -55 -4 -19 -10 -82 -13 -140 -6 -95 -10 -109 -38 -150 -91 -132
-104 -162 -104 -236 0 -33 -8 -49 -45 -93 -25 -29 -45 -59 -45 -68 0 -8 -8
-27 -18 -41 -10 -15 -25 -43 -32 -62 -7 -19 -22 -47 -32 -62 -10 -14 -18 -35
-18 -45 0 -11 -11 -30 -24 -42 -13 -12 -36 -50 -51 -84 -15 -34 -47 -103 -71
-153 -24 -50 -44 -99 -44 -108 0 -14 15 -16 108 -15 121 0 172 11 107 22 -22
4 -73 7 -112 7 -50 0 -73 4 -73 12 0 6 15 41 34 77 18 36 36 78 40 93 3 14 21
46 38 70 18 24 40 59 49 78 28 59 59 130 59 135 0 9 73 120 84 127 20 14 34 8
40 -14 6 -23 7 -23 18 -3 6 11 16 23 22 27 6 4 149 8 318 8 l308 0 67 -35 c51
-28 76 -35 107 -33 39 3 41 5 38 32 -3 27 -2 28 27 23 18 -4 31 -2 31 3 0 11
40 13 64 4 9 -3 16 -14 16 -24 0 -10 15 -54 33 -97 19 -43 37 -93 40 -111 4
-18 23 -66 42 -105 51 -101 97 -224 93 -245 -3 -14 -16 -17 -83 -18 -44 0
-149 4 -233 10 -178 12 -320 -1 -356 -31 -35 -30 -85 -63 -95 -63 -6 0 -25 9
-43 20 -45 27 -56 25 -24 -5 26 -24 26 -25 26 -165 0 -120 -2 -142 -16 -147
-24 -9 -212 14 -317 38 -96 22 -254 81 -297 109 -14 10 -56 35 -95 58 -79 45
-194 132 -195 147 0 5 -40 49 -90 97 -49 48 -90 90 -90 94 0 4 -12 23 -27 43
-45 59 -103 151 -103 164 0 7 -15 44 -34 82 -19 39 -42 102 -51 140 -10 39
-22 78 -26 87 -15 28 -39 234 -39 329 0 102 3 107 107 139 35 11 75 28 90 39
32 23 346 112 480 135 109 20 166 24 311 22 101 -1 115 -3 129 -21z m143 -541
c0 -43 -12 -68 -59 -116 -35 -36 -39 -38 -103 -38 -71 0 -83 7 -74 45 5 18 20
29 67 46 33 12 68 31 77 43 21 26 63 55 80 55 7 1 12 -13 12 -35z m-1289 -288
c30 -60 33 -96 9 -96 -5 0 -21 23 -35 50 -14 28 -29 50 -35 50 -19 0 -20 -21
-1 -58 20 -39 19 -82 -3 -82 -6 1 -22 24 -36 53 -19 41 -29 51 -45 49 -11 -2
-22 -6 -24 -8 -7 -7 22 -88 38 -107 13 -16 13 -19 1 -28 -27 -17 -45 -4 -60
41 -8 25 -21 55 -27 67 -22 37 -15 52 30 72 23 10 62 28 87 39 25 11 50 21 57
21 7 1 26 -28 44 -63z m2856 -42 c4 -12 -4 -26 -26 -44 -21 -16 -32 -33 -30
-45 6 -28 28 -30 38 -2 11 29 57 67 81 67 40 0 72 -77 50 -121 -23 -44 -53
-69 -82 -69 -43 0 -38 35 7 54 23 10 35 22 35 35 0 34 -18 33 -58 -4 -41 -37
-60 -42 -93 -25 -15 8 -19 21 -19 60 0 41 5 53 31 79 34 34 56 39 66 15z
m-2753 -156 c14 -20 14 -24 1 -43 -29 -39 -54 -79 -51 -82 1 -2 21 6 44 17 52
25 69 25 82 -1 21 -38 7 -62 -65 -116 -38 -29 -74 -51 -80 -49 -21 6 -15 37
12 61 31 27 17 33 -27 10 -26 -13 -30 -13 -44 1 -14 14 -14 20 9 61 34 59 28
73 -14 34 -34 -32 -51 -29 -51 9 1 15 136 119 157 120 6 0 19 -10 27 -22z
m2606 -73 c0 -9 -11 -33 -25 -55 -14 -22 -25 -46 -25 -55 0 -30 30 -14 56 30
14 25 31 44 38 42 21 -7 17 -47 -9 -81 -15 -19 -24 -40 -20 -46 13 -21 41 -8
67 30 30 42 45 49 54 25 4 -9 -10 -37 -33 -68 -22 -28 -42 -60 -46 -69 -8 -21
-27 -24 -27 -4 0 15 -73 72 -127 100 -39 20 -42 38 -8 64 14 11 25 23 25 28 0
4 10 23 23 41 23 34 57 45 57 18z m-2420 -186 c0 -10 -9 -23 -20 -29 -11 -6
-20 -16 -20 -23 -1 -18 -89 -107 -106 -107 -29 0 -27 31 5 64 17 17 31 37 31
43 0 6 18 27 40 47 41 37 70 39 70 5z m2255 -10 c4 -5 0 -18 -9 -28 -9 -10
-16 -26 -16 -35 0 -23 77 -116 96 -116 23 0 16 -37 -8 -44 -19 -5 -33 5 -80
54 -50 54 -58 59 -71 45 -9 -8 -23 -15 -31 -15 -25 0 -19 36 9 58 14 11 25 23
25 28 0 13 53 64 66 64 7 0 16 -5 19 -11z m-2127 -114 c2 -13 -17 -40 -54 -78
-53 -54 -65 -86 -32 -87 34 -1 73 -59 50 -74 -8 -5 -62 26 -105 60 -43 34 -35
60 41 136 67 68 95 80 100 43z m1964 -125 c17 -30 39 -67 49 -82 23 -32 24
-42 4 -58 -13 -11 -24 -9 -64 10 -65 30 -77 24 -45 -23 20 -31 23 -41 14 -53
-7 -8 -16 -14 -20 -14 -4 0 -31 36 -60 80 -41 62 -51 85 -46 105 7 28 22 32
45 12 22 -19 80 -41 87 -34 4 3 -3 26 -15 50 -26 55 -27 69 0 65 13 -2 32 -23
51 -58z m-1772 -23 c0 -23 -81 -170 -101 -182 -6 -4 -17 -1 -25 7 -13 13 -10
24 29 89 24 41 46 82 50 92 10 26 47 22 47 -6z m1367 7 c-3 -3 -12 -4 -19 -1
-8 3 -5 6 6 6 11 1 17 -2 13 -5z m141 -96 c2 -11 -10 -24 -37 -37 -22 -12 -43
-26 -46 -32 -13 -20 5 -23 40 -6 44 21 64 21 71 2 6 -14 -4 -25 -66 -75 -40
-31 -9 -42 50 -17 53 22 80 18 80 -12 0 -14 -11 -23 -37 -31 -21 -7 -54 -21
-74 -32 -20 -11 -42 -19 -48 -17 -10 4 -29 42 -87 174 -7 16 -10 33 -8 37 10
16 119 67 139 65 11 -1 21 -10 23 -19z m-1297 -15 c36 -22 53 -63 46 -115 -7
-54 -35 -90 -83 -106 -50 -17 -79 -9 -121 33 -27 27 -33 41 -33 74 0 50 20 91
57 121 32 25 85 22 134 -7z m1063 -75 c2 -7 12 -49 21 -94 16 -75 16 -83 1
-112 -19 -37 -43 -52 -85 -52 -51 0 -60 9 -82 84 -11 39 -25 83 -31 98 -8 22
-6 31 10 48 15 16 21 18 29 8 13 -17 43 -106 43 -129 0 -24 26 -42 50 -34 19
6 21 12 15 43 -4 20 -13 55 -21 78 -8 23 -11 49 -8 58 7 19 53 22 58 4z m-725
-43 c39 -24 58 -55 46 -75 -10 -16 -41 -11 -60 10 -49 54 -98 -14 -67 -92 14
-35 21 -35 47 -2 28 35 65 26 65 -16 0 -54 -91 -81 -142 -41 -30 24 -50 87
-41 131 7 36 73 110 98 110 9 0 33 -11 54 -25z m456 -26 c9 -27 3 -32 -47 -38
-57 -8 -61 -29 -6 -33 33 -2 44 -7 46 -22 5 -23 -14 -36 -51 -36 -28 0 -29 -1
-25 -46 2 -36 -1 -49 -14 -58 -35 -22 -47 10 -50 129 l-3 110 45 6 c87 12 98
10 105 -12z m-247 -106 l-3 -118 -27 -3 -28 -3 0 114 c0 62 3 117 7 120 3 4
17 7 30 7 l24 0 -3 -117z"/>
<path d="M2572 3825 c-38 -31 -48 -84 -29 -140 25 -73 100 -86 133 -24 21 42
5 57 -26 24 -30 -32 -43 -31 -69 1 -53 68 9 159 75 109 24 -18 34 -19 34 -1 0
19 -47 56 -71 56 -9 0 -31 -11 -47 -25z"/>
<path d="M2456 3767 c5 -62 4 -76 -11 -91 -35 -35 -74 4 -75 74 0 55 -10 80
-31 80 -21 0 -24 -21 -9 -66 5 -16 14 -48 20 -71 13 -52 33 -73 70 -73 43 0
70 40 70 105 0 73 -10 115 -27 115 -11 0 -13 -14 -7 -73z"/>
<path d="M2153 3813 c-26 -5 -28 -17 -13 -113 16 -100 16 -100 61 -100 30 0
47 7 66 26 23 23 25 31 21 85 -7 93 -43 120 -135 102z m100 -66 c22 -48 13
-85 -27 -107 -25 -14 -28 -13 -40 3 -15 19 -30 123 -20 138 3 6 20 9 37 7 26
-2 35 -10 50 -41z"/>
<path d="M2742 3731 c-23 -45 -42 -88 -42 -96 0 -25 18 -17 35 15 9 17 21 30
28 29 41 -3 61 -17 72 -49 12 -37 35 -53 35 -23 -1 10 -8 59 -18 108 -16 84
-19 90 -43 93 -23 3 -30 -5 -67 -77z m78 14 c16 -19 4 -35 -26 -35 -26 0 -32
18 -12 38 16 16 23 15 38 -3z"/>
<path d="M2914 3789 c-4 -7 -3 -14 2 -16 39 -14 40 -20 18 -103 -11 -44 -17
-85 -14 -90 11 -18 28 12 44 77 17 77 21 83 52 83 40 0 27 33 -16 41 -19 4
-45 10 -56 14 -13 4 -25 2 -30 -6z"/>
<path d="M2006 3777 c-59 -18 -62 -31 -32 -130 14 -47 30 -88 34 -91 9 -5 110
19 120 29 15 15 -16 24 -51 14 -28 -8 -42 -7 -53 2 -24 19 -16 38 23 56 21 10
39 26 41 37 3 16 0 18 -25 11 -51 -14 -68 -11 -71 12 -3 17 3 23 30 28 38 8
60 23 52 36 -7 11 -19 10 -68 -4z"/>
<path d="M3077 3708 c-17 -40 -48 -129 -51 -143 -3 -25 21 -14 36 16 18 35 48
129 48 148 0 23 -20 10 -33 -21z"/>
<path d="M3156 3711 c-4 -6 -13 -52 -21 -103 -11 -77 -12 -95 -1 -106 11 -11
21 -7 57 27 24 23 59 51 77 64 31 21 50 53 38 64 -3 3 -35 -20 -71 -52 -36
-32 -68 -55 -71 -52 -3 3 -1 38 5 78 9 68 3 106 -13 80z"/>
<path d="M1780 3679 c0 -6 10 -33 21 -60 12 -27 20 -52 17 -54 -2 -2 -32 14
-66 37 -84 55 -95 43 -49 -48 19 -38 38 -79 42 -91 7 -26 35 -31 35 -6 0 9
-12 36 -26 60 -27 46 -25 66 4 46 48 -34 108 -63 121 -61 26 5 22 22 -18 76
-22 28 -42 65 -46 82 -6 28 -35 44 -35 19z"/>
<path d="M3325 3570 c-27 -23 -66 -53 -87 -66 -38 -24 -48 -47 -27 -60 6 -3
23 6 38 20 15 14 32 26 37 26 21 0 48 -41 46 -70 -2 -32 16 -50 28 -29 5 7 12
40 15 73 4 32 11 73 16 90 6 22 5 34 -5 44 -11 11 -21 7 -61 -28z m35 -39 c0
-11 -5 -23 -11 -27 -15 -9 -33 12 -26 30 9 23 37 20 37 -3z"/>
<path d="M1519 3583 c-1 -5 0 -20 1 -35 1 -15 -4 -36 -10 -48 -26 -48 48 -150
108 -150 31 0 67 22 82 51 16 29 -8 95 -47 129 -33 30 -46 34 -90 30 -15 -1
-23 4 -23 14 0 16 -19 23 -21 9z m122 -82 c50 -51 35 -121 -26 -121 -30 0 -75
55 -75 92 0 64 51 78 101 29z"/>
<path d="M3532 3488 c-7 -7 -12 -17 -12 -23 0 -6 -22 -33 -50 -60 -47 -47 -62
-75 -40 -75 6 0 23 15 39 32 38 42 48 32 22 -21 -12 -22 -21 -45 -21 -51 0
-13 37 -13 45 0 10 15 65 42 65 31 0 -5 -11 -23 -25 -39 -25 -30 -33 -62 -15
-62 5 0 17 12 27 26 10 14 37 48 61 75 23 27 42 54 42 59 0 23 -26 19 -80 -14
-33 -19 -62 -31 -65 -25 -4 5 6 31 20 58 26 47 30 91 10 98 -6 2 -16 -2 -23
-9z"/>
<path d="M1410 3436 c0 -6 140 -141 151 -144 5 -2 9 2 9 10 0 20 -122 138
-143 138 -9 0 -17 -2 -17 -4z"/>
<path d="M1323 3365 c-37 -26 -45 -50 -33 -95 13 -48 63 -90 118 -97 31 -4 44
0 66 18 30 27 38 77 16 104 -18 22 -25 11 -21 -35 2 -31 -2 -41 -19 -50 -31
-16 -76 -3 -105 32 -43 51 -26 114 27 100 16 -4 19 -1 16 14 -4 25 -37 29 -65
9z"/>
<path d="M3700 3306 c-52 -34 -110 -103 -110 -129 0 -13 11 -34 25 -47 19 -18
31 -22 61 -17 37 6 143 72 151 95 11 27 -9 24 -50 -6 -81 -62 -136 -74 -152
-34 -5 13 10 33 59 78 36 33 66 66 66 72 0 17 -10 14 -50 -12z"/>
<path d="M1210 3225 c0 -8 27 -33 60 -55 64 -43 73 -65 41 -94 -17 -16 -22
-14 -84 29 -71 48 -87 54 -87 30 0 -8 4 -15 8 -15 5 0 35 -22 66 -50 72 -63
96 -65 132 -9 34 54 25 73 -58 134 -67 49 -78 53 -78 30z"/>
<path d="M3795 3129 c-33 -22 -70 -44 -82 -49 -25 -10 -32 -50 -9 -50 7 0 29
14 47 30 19 17 42 36 53 41 17 10 18 8 12 -17 -4 -15 -16 -46 -27 -68 -17 -36
-25 -76 -15 -76 9 0 132 73 149 87 16 15 24 53 11 53 -3 0 -26 -18 -51 -40
-72 -63 -78 -55 -33 38 50 104 40 114 -55 51z"/>
<path d="M1103 3088 c-21 -27 -56 -108 -50 -115 4 -3 15 2 26 11 18 17 22 16
87 -24 37 -22 74 -38 81 -35 22 8 9 20 -63 60 l-65 37 6 39 c7 39 -3 51 -22
27z"/>
<path d="M3878 2949 c-74 -37 -86 -48 -72 -62 10 -9 174 76 174 90 0 20 -19
15 -102 -28z"/>
<path d="M1022 2918 c3 -7 20 -21 39 -31 19 -11 36 -22 39 -26 8 -10 80 -51
91 -51 20 0 7 30 -23 53 -33 24 -122 67 -140 67 -5 0 -8 -5 -6 -12z"/>
<path d="M3913 2894 c-61 -30 -81 -107 -38 -149 26 -26 41 -30 64 -16 19 12 7
27 -29 34 -45 9 -41 45 9 85 49 40 74 40 101 2 17 -24 19 -32 8 -49 -18 -30 1
-40 23 -12 22 27 17 64 -14 99 -25 27 -77 29 -124 6z"/>
<path d="M976 2845 c-4 -14 -11 -25 -16 -25 -10 0 -40 -52 -40 -70 0 -15 36
-12 50 5 17 20 30 19 96 -10 62 -27 98 -32 92 -12 -3 6 -39 25 -82 41 l-77 30
6 33 c4 25 2 33 -8 33 -8 0 -18 -11 -21 -25z"/>
<path d="M4055 2741 c-6 -4 -40 -19 -77 -31 -63 -22 -85 -40 -73 -61 3 -5 27
3 53 16 26 14 68 34 95 44 26 11 47 25 47 30 0 13 -32 15 -45 2z"/>
<path d="M917 2692 c-19 -4 -47 -51 -47 -80 0 -25 41 -62 69 -62 13 0 40 17
63 40 47 46 53 48 68 20 8 -15 6 -24 -9 -39 -10 -10 -24 -20 -32 -23 -16 -5
-3 -28 17 -28 23 0 64 46 64 72 0 13 -13 38 -30 56 -33 37 -53 34 -84 -12 -9
-14 -29 -32 -45 -41 -25 -13 -30 -13 -41 0 -16 20 12 65 40 65 11 0 20 6 20
14 0 15 -25 24 -53 18z"/>
<path d="M4060 2659 c-19 -12 -56 -28 -82 -36 -62 -18 -68 -46 -8 -37 33 5 41
3 46 -12 21 -59 90 -75 120 -29 15 23 15 32 4 68 -7 23 -14 48 -16 55 -5 18
-24 15 -64 -9z m52 -54 c9 -21 9 -29 -4 -42 -19 -19 -42 -12 -57 16 -8 15 -7
23 5 35 23 23 43 20 56 -9z"/>
<path d="M850 2510 c0 -13 11 -17 73 -25 26 -3 47 -10 47 -14 0 -11 -83 -51
-106 -51 -61 -1 -55 -45 8 -53 23 -3 70 -10 102 -16 33 -6 62 -8 65 -6 11 11
-18 25 -67 32 -58 9 -71 23 -32 35 14 4 45 13 70 20 33 9 46 19 48 34 3 18 -6
22 -85 37 -102 20 -123 21 -123 7z"/>
<path d="M3962 2478 c3 -7 13 -15 24 -16 22 -4 53 -40 54 -62 0 -8 -12 -24
-27 -35 -16 -14 -23 -26 -19 -34 6 -10 12 -9 24 2 10 8 54 34 100 58 55 29 82
48 82 60 0 23 -14 26 -139 34 -84 6 -102 4 -99 -7z m144 -39 c10 -16 -23 -46
-36 -33 -6 6 -8 18 -4 27 7 19 29 22 40 6z"/>
<path d="M812 2328 c5 -13 68 -29 167 -42 88 -12 57 16 -40 35 -104 22 -132
23 -127 7z"/>
<path d="M4140 2329 c-128 -19 -135 -22 -138 -58 -5 -47 5 -81 24 -81 12 0 14
8 9 45 -8 51 -10 50 110 63 50 5 70 11 70 21 0 19 -9 20 -75 10z"/>
<path d="M2035 1528 l-16 -33 20 25 c20 24 26 40 16 40 -2 0 -12 -15 -20 -32z"/>
<path d="M3070 1485 c0 -8 4 -15 10 -15 5 0 7 7 4 15 -4 8 -8 15 -10 15 -2 0
-4 -7 -4 -15z"/>
<path d="M1971 1389 c-7 -12 -10 -23 -8 -26 3 -3 11 5 17 17 6 12 10 23 8 25
-2 2 -10 -5 -17 -16z"/>
<path d="M3130 1306 c0 -8 5 -18 10 -21 6 -3 10 1 10 9 0 8 -4 18 -10 21 -5 3
-10 -1 -10 -9z"/>
<path d="M1898 1235 c-3 -14 -2 -25 2 -25 11 0 20 39 10 45 -4 3 -10 -6 -12
-20z"/>
<path d="M1856 1164 c-9 -22 -8 -24 9 -24 8 0 15 9 15 20 0 24 -15 27 -24 4z"/>
<path d="M2375 1060 c-3 -6 6 -15 20 -20 35 -13 45 -13 45 4 0 23 -53 36 -65
16z"/>
<path d="M1800 678 c-29 -31 -27 -83 4 -103 22 -15 27 -15 55 -1 42 22 54 81
21 108 -30 24 -55 23 -80 -4z"/>
</g>
</svg>
